<svg width="512" height="512" viewBox="0 0 512 512" fill="none" xmlns="http://www.w3.org/2000/svg">
  <!-- Football/Soccer Ball -->
  <circle cx="256" cy="256" r="200" fill="#3b82f6" stroke="#1e40af" stroke-width="8"/>
  <!-- Pentagon pattern -->
  <polygon points="256,106 306,156 286,226 226,226 206,156" fill="#ffffff"/>
  <polygon points="206,156 156,206 126,176 146,106 196,136" fill="#e5e7eb"/>
  <polygon points="306,156 356,206 386,176 366,106 316,136" fill="#e5e7eb"/>
  <polygon points="156,206 126,256 156,306 206,356 226,286" fill="#e5e7eb"/>
  <polygon points="356,206 386,256 356,306 306,356 286,286" fill="#e5e7eb"/>
  <polygon points="156,306 206,356 256,406 306,356 356,306 386,256 356,206 306,156 256,106 206,156 156,206 126,256" fill="none" stroke="#1e40af" stroke-width="4"/>
  <!-- Match Tracker Text -->
  <text x="256" y="450" text-anchor="middle" font-family="Arial, sans-serif" font-size="48" font-weight="bold" fill="#1e40af">MT</text>
</svg>